<?xml version="1.0" standalone="no"?>
<!DOCTYPE svg PUBLIC "-//W3C//DTD SVG 20010904//EN"
 "http://www.w3.org/TR/2001/REC-SVG-20010904/DTD/svg10.dtd">
<svg version="1.0" xmlns="http://www.w3.org/2000/svg"
 width="256.000000pt" height="256.000000pt" viewBox="0 0 256.000000 256.000000"
 preserveAspectRatio="xMidYMid meet">
<metadata>
Created by potrace 1.14, written by Peter Selinger 2001-2017
</metadata>
<g transform="translate(0.000000,256.000000) scale(0.100000,-0.100000)"
fill="#000000" stroke="none">
<path d="M0 1280 l0 -1280 1280 0 1280 0 0 1280 0 1280 -1280 0 -1280 0 0
-1280z m1349 863 c30 -14 102 -61 162 -103 59 -43 110 -75 113 -72 3 3 6 29 6
57 0 82 15 90 141 78 62 -6 106 -16 115 -25 17 -17 40 -130 60 -302 8 -71 19
-136 24 -145 4 -9 34 -47 65 -86 65 -81 169 -231 179 -259 18 -50 -17 -71
-137 -81 -45 -4 -80 -12 -82 -18 -2 -7 -9 -119 -14 -249 -6 -130 -18 -301 -28
-379 -22 -186 -20 -184 -157 -175 -55 4 -102 9 -105 11 -2 3 1 58 8 123 33
350 33 961 1 1023 -9 15 -19 19 -43 17 -83 -8 -227 -302 -262 -535 -17 -111
-19 -240 -6 -276 11 -29 27 -36 104 -44 l60 -6 -7 -116 c-4 -64 -10 -132 -15
-151 l-7 -35 -206 -3 -205 -2 -6 29 c-3 15 -9 91 -13 167 l-6 139 37 35 c59
54 65 77 66 277 0 98 4 237 8 308 8 135 2 163 -31 150 -19 -7 -25 -57 -34
-283 -7 -156 -8 -164 -30 -178 -29 -20 -61 -5 -70 32 -4 15 -2 112 4 218 8
160 8 193 -4 206 -12 12 -16 12 -30 -2 -13 -12 -18 -55 -25 -214 -6 -110 -12
-209 -14 -220 -9 -43 -79 -36 -90 9 -3 12 -1 110 4 217 8 165 7 197 -5 210
-12 12 -16 12 -30 -2 -14 -13 -18 -61 -27 -291 -13 -338 -9 -367 62 -436 l48
-46 11 -159 c7 -88 11 -160 9 -161 -1 -1 -63 -5 -139 -8 -178 -9 -175 -11
-193 138 -15 122 -34 415 -38 570 l-2 100 -99 12 c-54 7 -105 18 -112 24 -37
30 -2 99 155 299 180 231 491 505 696 614 60 32 69 32 134 -1z"/>
</g>
</svg>
